<svg width="250" height="240" viewBox="0 0 250 240" fill="none" xmlns="http://www.w3.org/2000/svg">
<path d="M245 122.5C245 187.393 190.155 240 122.5 240C54.8451 240 0 187.393 0 122.5C0 57.6065 54.8451 5 122.5 5C190.155 5 245 57.6065 245 122.5Z" fill="black"/>
<circle cx="132.208" cy="117.792" r="115.292" fill="white" stroke="black" stroke-width="5"/>
<circle cx="132.208" cy="117.792" r="11.0943" fill="#0B0B0B"/>
<ellipse cx="193.689" cy="117.792" rx="50.3868" ry="16.6415" fill="#C4C4C4"/>
<path d="M121.113 117.792C121.113 126.983 98.5543 134.434 70.7264 134.434C42.8985 134.434 20.3396 126.983 20.3396 117.792C20.3396 108.602 42.8985 101.151 70.7264 101.151C98.5543 101.151 121.113 108.602 121.113 117.792Z" fill="#C4C4C4"/>
<ellipse cx="132.208" cy="56.3114" rx="50.3868" ry="16.6415" transform="rotate(90 132.208 56.3114)" fill="#C4C4C4"/>
<ellipse cx="132.208" cy="179.274" rx="50.3868" ry="16.6415" transform="rotate(-90 132.208 179.274)" fill="#C4C4C4"/>
</svg>
