<svg width="244" height="243" viewBox="0 0 244 243" fill="none" xmlns="http://www.w3.org/2000/svg">
<path d="M122.366 238.965C187.598 238.965 240.5 186.266 240.5 121.232C240.5 56.199 187.598 3.5 122.366 3.5C57.134 3.5 4.23206 56.199 4.23206 121.232C4.23206 186.266 57.134 238.965 122.366 238.965Z" fill="white" stroke="black" stroke-width="7"/>
<ellipse cx="122.366" cy="121.232" rx="11.2755" ry="11.236" fill="#0B0B0B"/>
<ellipse cx="184.851" cy="121.232" rx="51.2094" ry="16.854" fill="#C4C4C4"/>
<path d="M111.091 121.232C111.091 130.541 88.1633 138.086 59.8811 138.086C31.5989 138.086 8.67169 130.541 8.67169 121.232C8.67169 111.924 31.5989 104.378 59.8811 104.378C88.1633 104.378 111.091 111.924 111.091 121.232Z" fill="#C4C4C4"/>
<ellipse cx="122.366" cy="58.9664" rx="51.03" ry="16.9132" transform="rotate(90 122.366 58.9664)" fill="#C4C4C4"/>
<ellipse cx="122.366" cy="183.498" rx="51.03" ry="16.9132" transform="rotate(-90 122.366 183.498)" fill="#C4C4C4"/>
</svg>
