<svg width="146" height="40" viewBox="0 0 146 40" fill="none" xmlns="http://www.w3.org/2000/svg">
<path d="M16.56 34L16.537 24.34L11.799 32.298H10.12L5.405 24.547V34H1.909V17.9H4.991L11.017 27.905L16.951 17.9H20.01L20.056 34H16.56ZM35.7438 27.859C35.7438 27.905 35.7208 28.227 35.6748 28.825H26.3138C26.4825 29.5917 26.8811 30.1973 27.5098 30.642C28.1385 31.0867 28.9205 31.309 29.8558 31.309C30.4998 31.309 31.0671 31.217 31.5578 31.033C32.0638 30.8337 32.5315 30.527 32.9608 30.113L34.8698 32.183C33.7045 33.517 32.0025 34.184 29.7638 34.184C28.3685 34.184 27.1341 33.9157 26.0608 33.379C24.9875 32.827 24.1595 32.068 23.5768 31.102C22.9941 30.136 22.7028 29.0397 22.7028 27.813C22.7028 26.6017 22.9865 25.513 23.5538 24.547C24.1365 23.5657 24.9261 22.8067 25.9228 22.27C26.9348 21.718 28.0618 21.442 29.3038 21.442C30.5151 21.442 31.6115 21.7027 32.5928 22.224C33.5741 22.7453 34.3408 23.4967 34.8928 24.478C35.4601 25.444 35.7438 26.571 35.7438 27.859ZM29.3268 24.156C28.5141 24.156 27.8318 24.386 27.2798 24.846C26.7278 25.306 26.3905 25.9347 26.2678 26.732H32.3628C32.2401 25.95 31.9028 25.329 31.3508 24.869C30.7988 24.3937 30.1241 24.156 29.3268 24.156ZM43.4456 29.147L41.7206 30.849V34H38.1326V16.934H41.7206V26.594L46.9646 21.626H51.2426L46.0906 26.87L51.7026 34H47.3556L43.4456 29.147ZM58.0825 21.442C59.9992 21.442 61.4712 21.902 62.4985 22.822C63.5259 23.7267 64.0395 25.099 64.0395 26.939V34H60.6815V32.459C60.0069 33.609 58.7495 34.184 56.9095 34.184C55.9589 34.184 55.1309 34.023 54.4255 33.701C53.7355 33.379 53.2065 32.9343 52.8385 32.367C52.4705 31.7997 52.2865 31.1557 52.2865 30.435C52.2865 29.285 52.7159 28.3803 53.5745 27.721C54.4485 27.0617 55.7902 26.732 57.5995 26.732H60.4515C60.4515 25.95 60.2139 25.352 59.7385 24.938C59.2632 24.5087 58.5502 24.294 57.5995 24.294C56.9402 24.294 56.2885 24.4013 55.6445 24.616C55.0159 24.8153 54.4792 25.0913 54.0345 25.444L52.7465 22.937C53.4212 22.4617 54.2262 22.0937 55.1615 21.833C56.1122 21.5723 57.0859 21.442 58.0825 21.442ZM57.8065 31.769C58.4199 31.769 58.9642 31.631 59.4395 31.355C59.9149 31.0637 60.2522 30.642 60.4515 30.09V28.825H57.9905C56.5185 28.825 55.7825 29.308 55.7825 30.274C55.7825 30.734 55.9589 31.102 56.3115 31.378C56.6795 31.6387 57.1779 31.769 57.8065 31.769ZM74.8079 21.442C76.3412 21.442 77.5755 21.902 78.5109 22.822C79.4615 23.742 79.9369 25.1067 79.9369 26.916V34H76.3489V27.468C76.3489 26.4867 76.1342 25.7583 75.7049 25.283C75.2755 24.7923 74.6545 24.547 73.8419 24.547C72.9372 24.547 72.2165 24.8307 71.6799 25.398C71.1432 25.95 70.8749 26.778 70.8749 27.882V34H67.2869V21.626H70.7139V23.075C71.1892 22.5537 71.7795 22.155 72.4849 21.879C73.1902 21.5877 73.9645 21.442 74.8079 21.442ZM83.1892 16.934H86.7772V34H83.1892V16.934ZM102.573 21.626V34H99.1692V32.528C98.6938 33.0647 98.1265 33.4787 97.4672 33.77C96.8078 34.046 96.0948 34.184 95.3282 34.184C93.7028 34.184 92.4148 33.7163 91.4642 32.781C90.5135 31.8457 90.0382 30.458 90.0382 28.618V21.626H93.6262V28.089C93.6262 30.0823 94.4618 31.079 96.1332 31.079C96.9918 31.079 97.6818 30.803 98.2032 30.251C98.7245 29.6837 98.9852 28.848 98.9852 27.744V21.626H102.573ZM109.83 21.902H113.004V24.662H109.922V34H106.334V24.662H104.425V21.902H106.334V21.35C106.334 19.9393 106.748 18.82 107.576 17.992C108.42 17.164 109.6 16.75 111.118 16.75C111.655 16.75 112.161 16.8113 112.636 16.934C113.127 17.0413 113.533 17.2023 113.855 17.417L112.912 20.016C112.498 19.7247 112.015 19.579 111.463 19.579C110.375 19.579 109.83 20.177 109.83 21.373V21.902ZM122.773 33.402C122.42 33.6627 121.983 33.862 121.462 34C120.956 34.1227 120.419 34.184 119.852 34.184C118.38 34.184 117.237 33.8083 116.425 33.057C115.627 32.3057 115.229 31.2017 115.229 29.745V24.662H113.32V21.902H115.229V18.889H118.817V21.902H121.899V24.662H118.817V29.699C118.817 30.2203 118.947 30.6267 119.208 30.918C119.484 31.194 119.867 31.332 120.358 31.332C120.925 31.332 121.408 31.1787 121.807 30.872L122.773 33.402Z" fill="black"/>
<circle cx="134" cy="12" r="11" fill="white" stroke="black" stroke-width="2"/>
<circle cx="134" cy="12" r="1.25" fill="#0B0B0B"/>
<ellipse cx="139.625" cy="12" rx="4.375" ry="1.25" fill="#C4C4C4"/>
<path d="M132.75 12C132.75 12.6904 130.791 13.25 128.375 13.25C125.959 13.25 124 12.6904 124 12C124 11.3096 125.959 10.75 128.375 10.75C130.791 10.75 132.75 11.3096 132.75 12Z" fill="#C4C4C4"/>
<ellipse cx="134" cy="6.375" rx="4.375" ry="1.25" transform="rotate(90 134 6.375)" fill="#C4C4C4"/>
<ellipse cx="134" cy="17.625" rx="4.375" ry="1.25" transform="rotate(-90 134 17.625)" fill="#C4C4C4"/>
</svg>
